<svg width="445" height="350" viewBox="0 0 445 350" fill="none" xmlns="http://www.w3.org/2000/svg">
<path d="M350 100H95.0001V280.001H350V100Z" fill="white" stroke="#3C3C3C" stroke-width="1.3" stroke-miterlimit="1.5" stroke-linecap="square"/>
<path d="M142 181.446C185.612 137.835 256.307 137.835 299.919 181.446" stroke="#3C3C3C" stroke-width="1.3" stroke-miterlimit="1.5"/>
<path d="M289.391 181.447H299.919V170.919" stroke="#3C3C3C" stroke-width="1.3" stroke-miterlimit="1.5"/>
<path d="M128.765 119.5C130.836 119.5 132.515 117.821 132.515 115.75C132.515 113.679 130.836 112 128.765 112C126.694 112 125.015 113.679 125.015 115.75C125.015 117.821 126.694 119.5 128.765 119.5Z" fill="white" stroke="#3C3C3C" stroke-width="1.3" stroke-miterlimit="1.5" stroke-linecap="square"/>
<path d="M113.75 119.5C115.821 119.5 117.5 117.821 117.5 115.75C117.5 113.679 115.821 112 113.75 112C111.679 112 110 113.679 110 115.75C110 117.821 111.679 119.5 113.75 119.5Z" fill="white" stroke="#3C3C3C" stroke-width="1.3" stroke-miterlimit="1.5" stroke-linecap="square"/>
<path d="M374.5 89.5H396.5" stroke="#3C3C3C" stroke-width="1.3" stroke-miterlimit="1.5" stroke-linejoin="bevel"/>
<path d="M385.5 78.5V100.5" stroke="#3C3C3C" stroke-width="1.3" stroke-miterlimit="1.5" stroke-linejoin="bevel"/>
<path d="M385.5 81.646C385.5 85.9844 389.187 89.5044 393.526 89.5044C389.187 89.5044 385.5 93.02 385.5 97.3628C385.5 93.0244 381.624 89.5044 377.285 89.5044H377.646H377.285C381.624 89.5 385.5 85.9844 385.5 81.646Z" fill="white" stroke="#3C3C3C" stroke-width="1.3" stroke-miterlimit="1.5" stroke-linejoin="bevel"/>
<path d="M350 66H364" stroke="#3C3C3C" stroke-width="1.3" stroke-miterlimit="1.5" stroke-linejoin="bevel"/>
<path d="M357 59V73" stroke="#3C3C3C" stroke-width="1.3" stroke-miterlimit="1.5" stroke-linejoin="bevel"/>
<path d="M357 61.002C357 63.7628 359.346 66.0028 362.107 66.0028C359.346 66.0028 357 68.24 357 71.0036C357 68.2428 354.533 66.0028 351.772 66.0028H352.002H351.772C354.533 66 357 63.7628 357 61.002Z" fill="white" stroke="#3C3C3C" stroke-width="1.3" stroke-miterlimit="1.5" stroke-linejoin="bevel"/>
<rect x="84.65" y="221.65" width="52.7" height="72.7" fill="#F2EAF3" stroke="#3C3C3C" stroke-width="1.3" stroke-miterlimit="1.5" stroke-linecap="square"/>
<path d="M126.35 204.707L126.35 274.35L63.65 274.35L63.65 189.65L111.038 189.65L126.35 204.707Z" fill="white" stroke="#3C3C3C" stroke-width="1.3" stroke-miterlimit="1.5" stroke-linecap="square"/>
<path d="M111 190V205H126" stroke="#3C3C3C" stroke-width="1.3"/>
<path d="M76 216H106" stroke="#3C3C3C" stroke-width="1.3"/>
<path d="M76 226H96" stroke="#3C3C3C" stroke-width="1.3"/>
<path d="M76 236H104" stroke="#3C3C3C" stroke-width="1.3"/>
<path d="M117.285 308.143L117.285 247.65L22.65 247.65L22.65 308.143L117.285 308.143Z" fill="white" stroke="#3C3C3C" stroke-width="1.3" stroke-miterlimit="1.5" stroke-linecap="square"/>
<path d="M23 248L70 285L117 248" stroke="#3C3C3C" stroke-width="1.3"/>
<path d="M23 308L61 278" stroke="#3C3C3C" stroke-width="1.3"/>
<path d="M79 278L117 308" stroke="#3C3C3C" stroke-width="1.3"/>
<rect x="282.15" y="216.65" width="87.7039" height="84.3133" fill="#EDEDED" stroke="#3C3C3C" stroke-width="1.3"/>
<rect x="281.5" y="279.574" width="88.1562" height="1.10195" fill="#3C3C3C"/>
<rect x="281.5" y="258.383" width="88.1562" height="1.10195" fill="#3C3C3C"/>
<rect x="282.348" y="237.191" width="88.1562" height="1.10195" fill="#3C3C3C"/>
<rect x="289.977" y="289.746" width="15.2578" height="1.10195" fill="#3C3C3C"/>
<rect x="289.977" y="268.555" width="15.2578" height="1.10195" fill="#3C3C3C"/>
<rect x="289.977" y="247.363" width="15.2578" height="1.10195" fill="#3C3C3C"/>
<rect x="289.977" y="226.172" width="15.2578" height="1.10195" fill="#3C3C3C"/>
<path d="M362.035 208.747L361.45 209.031L361.628 209.397H362.035V208.747ZM362.035 208.747C362.035 209.397 362.035 209.397 362.035 209.397H362.036H362.038H362.04H362.044H362.047H362.052H362.057H362.063H362.069H362.076H362.084H362.093H362.102H362.112H362.122H362.134H362.145H362.158H362.171H362.185H362.199H362.214H362.23H362.246H362.263H362.281H362.299H362.318H362.338H362.358H362.378H362.4H362.422H362.444H362.468H362.492H362.516H362.541H362.567H362.593H362.62H362.647H362.675H362.704H362.733H362.763H362.794H362.825H362.856H362.888H362.921H362.954H362.988H363.023H363.058H363.093H363.13H363.166H363.204H363.242H363.28H363.319H363.358H363.398H363.439H363.48H363.522H363.564H363.607H363.65H363.694H363.738H363.783H363.829H363.874H363.921H363.968H364.015H364.063H364.112H364.161H364.21H364.26H364.311H364.362H364.413H364.465H364.518H364.571H364.624H364.678H364.733H364.788H364.843H364.899H364.955H365.012H365.069H365.127H365.185H365.244H365.303H365.363H365.423H365.483H365.544H365.605H365.667H365.73H365.792H365.855H365.919H365.983H366.048H366.112H366.178H366.243H366.31H366.376H366.443H366.511H366.578H366.647H366.715H366.784H366.854H366.924H366.994H367.065H367.136H367.207H367.279H367.351H367.424H367.497H367.57H367.644H367.718H367.792H367.867H367.943H368.018H368.094H368.17H368.247H368.324H368.402H368.479H368.557H368.636H368.715H368.794H368.873H368.953H369.033H369.114H369.195H369.276H369.357H369.439H369.521H369.604H369.686H369.769H369.853H369.937H370.021H370.105H370.189H370.274H370.36H370.445H370.531H370.617H370.703H370.79H370.877H370.964H371.052H371.14H371.228H371.316H371.405H371.494H371.583H371.672H371.762H371.852H371.942H372.033H372.123H372.214H372.306H372.397H372.489H372.581H372.673H372.765H372.858H372.951H373.044H373.137H373.231H373.325H373.419H373.513H373.607H373.702H373.797H373.892H373.987H374.083H374.179H374.274H374.371H374.467H374.563H374.66H374.757H374.854H374.951H375.049H375.146H375.244H375.342H375.44H375.538H375.637H375.735H375.834H375.933H376.032H376.131H376.231H376.33H376.43H376.53H376.63H376.73H376.83H376.931H377.031H377.132H377.233H377.334H377.435H377.536H377.637H377.739H377.84H377.942H378.044H378.146H378.248H378.35H378.452H378.554H378.657H378.759H378.862H378.964H379.067H379.17H379.273H379.376H379.479H379.582H379.685H379.789H379.892H379.995H380.099H380.203H380.306H380.41H380.514H380.617H380.721H380.825H380.929H381.033H381.137H381.241H381.345H381.45H381.554H381.658H381.762H381.866H381.971H382.075H382.179H382.284H382.388H382.492H382.597H382.701H382.806H382.91H383.014H383.119H383.223H383.328H383.432H383.536H383.641H383.745H383.849H383.954H384.058H384.162H384.266H384.371H384.475H384.579H384.683H384.787H384.891H384.995H385.099H385.203H385.307H385.41H385.514H385.618H385.721H385.825H385.928H386.032H386.135H386.238H386.342H386.445H386.548H386.651H386.754H386.856H386.959H387.062H387.164H387.267H387.369H387.471H387.573H387.675H387.777H387.879H387.981H388.082H388.184H388.285H388.386H388.487H388.588H388.689H388.79H388.89H388.991H389.091H389.191H389.291H389.391H389.491H389.591H389.69H389.789H389.889H389.988H390.086H390.185H390.284H390.382H390.48H390.578H390.676H390.774H390.871H390.968H391.065H391.162H391.259H391.356H391.452H391.548H391.644H391.74H391.835H391.931H392.026H392.121H392.216H392.31H392.404H392.498H392.592H392.686H392.779H392.873H392.965H393.058H393.151H393.243H393.335H393.427H393.518H393.61H393.701H393.791H393.882H393.972H394.062H394.152H394.242H394.331H394.42H394.509H394.597H394.685H394.773H394.861H394.948H395.035H395.122H395.208H395.294H395.38H395.466H395.551H395.636H395.721H395.805H395.889H395.973H396.057H396.14H396.223H396.305H396.388H396.469H396.551H396.632H396.713H396.794H396.874H396.954H397.034H397.113H397.192H397.27H397.348H397.426H397.504H397.581H397.658H397.734H397.81H397.886H397.961H398.036H398.111H398.185H398.259H398.332H398.405H398.478H398.55H398.622H398.694H398.765H398.836H398.906H398.976H399.046H399.115H399.184H399.252H399.32H399.388H399.455H399.521H399.588H399.654H399.719H399.784H399.849H399.913H399.977H400.04H400.103H400.165H400.227H400.289H400.35H400.41H400.47H400.53H400.589H400.648H400.707H400.764H400.822H400.879H400.935H400.991H401.047H401.102H401.156H401.211H401.264H401.317H401.37C401.828 209.397 402.283 209.595 402.632 209.947C402.967 210.283 403.164 210.762 403.164 211.262V211.315V211.369V211.423V211.478V211.533V211.589V211.646V211.703V211.761V211.819V211.878V211.937V211.997V212.058V212.119V212.18V212.242V212.305V212.368V212.432V212.496V212.561V212.626V212.692V212.758V212.825V212.892V212.96V213.028V213.097V213.167V213.237V213.307V213.378V213.449V213.521V213.594V213.667V213.74V213.814V213.888V213.963V214.039V214.114V214.191V214.267V214.345V214.422V214.5V214.579V214.658V214.738V214.818V214.898V214.979V215.061V215.142V215.225V215.307V215.391V215.474V215.558V215.643V215.728V215.813V215.899V215.985V216.072V216.159V216.246V216.334V216.422V216.511V216.6V216.69V216.78V216.87V216.961V217.052V217.143V217.235V217.328V217.42V217.514V217.607V217.701V217.795V217.89V217.985V218.08V218.176V218.272V218.369V218.466V218.563V218.661V218.759V218.857V218.956V219.055V219.154V219.254V219.354V219.454V219.555V219.656V219.758V219.859V219.962V220.064V220.167V220.27V220.373V220.477V220.581V220.685V220.79V220.895V221.001V221.106V221.212V221.318V221.425V221.532V221.639V221.746V221.854V221.962V222.07V222.179V222.288V222.397V222.506V222.616V222.726V222.836V222.947V223.058V223.169V223.28V223.392V223.503V223.615V223.728V223.84V223.953V224.066V224.18V224.293V224.407V224.521V224.635V224.75V224.865V224.98V225.095V225.21V225.326V225.442V225.558V225.674V225.791V225.908V226.025V226.142V226.259V226.377V226.495V226.612V226.731V226.849V226.968V227.086V227.205V227.324V227.444V227.563V227.683V227.803V227.923V228.043V228.163V228.284V228.404V228.525V228.646V228.767V228.888V229.01V229.132V229.253V229.375V229.497V229.619V229.742V229.864V229.987V230.109V230.232V230.355V230.478V230.602V230.725V230.848V230.972V231.096V231.22V231.344V231.468V231.592V231.716V231.84V231.965V232.089V232.214V232.339V232.463V232.588V232.713V232.838V232.964V233.089V233.214V233.34V233.465V233.59V233.716V233.842V233.967V234.093V234.219V234.345V234.471V234.597V234.723V234.849V234.975V235.101V235.228V235.354V235.48V235.607V235.733V235.859V235.986V236.112V236.239V236.365V236.492V236.618V236.745V236.871V236.998V237.124V237.251V237.377V237.504V237.631V237.757V237.884V238.01V238.137V238.263V238.39V238.516V238.643V238.769V238.896V239.022V239.148V239.275V239.401V239.527V239.653V239.78V239.906V240.032V240.158V240.284V240.41V240.536V240.662V240.787V240.913V241.039V241.164V241.29V241.415V241.541V241.666V241.791V241.916V242.041V242.166V242.291V242.416V242.541V242.665V242.79V242.914V243.039V243.163V243.287V243.411V243.535V243.659V243.783V243.906V244.03V244.153V244.276V244.399V244.522V244.645V244.768V244.89V245.013V245.135V245.257V245.379V245.501V245.623V245.744V245.866V245.987V246.108V246.229V246.35V246.471V246.591V246.712V246.832V246.952V247.071V247.191V247.311V247.43V247.549V247.668V247.786V247.905V248.023V248.141V248.259V248.377V248.495V248.612V248.729V248.846V248.963V249.079V249.196V249.312V249.428V249.543V249.659V249.774V249.889V250.004V250.118V250.232V250.346V250.46V250.574V250.687V250.8V250.913V251.026V251.138V251.25V251.362V251.473V251.585V251.696V251.806V251.917V252.027V252.137V252.247V252.356V252.465V252.574V252.683V252.791V252.899V253.007V253.114V253.221V253.328V253.434V253.541V253.646V253.752V253.857V253.962V254.067V254.171V254.275V254.379V254.482V254.586V254.688V254.791V254.893V254.995V255.096V255.197V255.298V255.398V255.498V255.598V255.697V255.796V255.895V255.993V256.091V256.189V256.286V256.383V256.479V256.575V256.671V256.766V256.861V256.956V257.05V257.144V257.238V257.331V257.423V257.516V257.608V257.699V257.79V257.881V257.971V258.061V258.151V258.24V258.328V258.417V258.505V258.592V258.679V258.766V258.852V258.937V259.023V259.108V259.192V259.276V259.36V259.443V259.525V259.608V259.689V259.771V259.852V259.932V260.012V260.092V260.171V260.249V260.327V260.405V260.482V260.559V260.635V260.711V260.786V260.861V260.935V261.009V261.082V261.155V261.228V261.299V261.371V261.442V261.512V261.582V261.651V261.72V261.788V261.856V261.924V261.99V262.057V262.122V262.188V262.252V262.316V262.38V262.443V262.506V262.568V262.629V262.69V262.751V262.81V262.87V262.928V262.987V263.044V263.101V263.158V263.214V263.269V263.324V263.378V263.432V263.485C403.164 263.984 402.968 264.466 402.627 264.816C402.299 265.154 401.84 265.35 401.37 265.35M362.035 208.747L361.45 209.031L361.45 209.031L361.45 209.03L361.448 209.026L361.441 209.012L361.415 208.958L361.313 208.748L360.939 207.978L359.707 205.443C358.748 203.468 357.613 201.129 356.907 199.672C356.595 199.038 355.97 198.65 355.309 198.65L339.374 198.65L322.444 198.65C321.473 198.65 320.65 199.47 320.65 200.515V200.575V200.637V200.699V200.762V200.826V200.89V200.955V201.021V201.087V201.154V201.222V201.291V201.36V201.43V201.501V201.572V201.644V201.717V201.79V201.864V201.939V202.015V202.091V202.167V202.245V202.323V202.402V202.481V202.561V202.642V202.723V202.805V202.888V202.971V203.055V203.14V203.225V203.311V203.398V203.485V203.572V203.661V203.75V203.839V203.929V204.02V204.111V204.203V204.296V204.389V204.483V204.577V204.672V204.768V204.864V204.96V205.058V205.156V205.254V205.353V205.452V205.552V205.653V205.754V205.856V205.958V206.061V206.164V206.268V206.373V206.478V206.583V206.689V206.796V206.903V207.01V207.118V207.227V207.336V207.446V207.556V207.667V207.778V207.889V208.002V208.114V208.227V208.341V208.455V208.57V208.685V208.8V208.916V209.033V209.149V209.267V209.385V209.503V209.622V209.741V209.861V209.981V210.101V210.222V210.344V210.465V210.588V210.71V210.833V210.957V211.081V211.205V211.33V211.455V211.581V211.707V211.833V211.96V212.087V212.215V212.343V212.471V212.6V212.729V212.859V212.989V213.119V213.25V213.381V213.512V213.644V213.776V213.908V214.041V214.174V214.308V214.441V214.576V214.71V214.845V214.98V215.116V215.252V215.388V215.524V215.661V215.798V215.936V216.073V216.211V216.35V216.488V216.627V216.767V216.906V217.046V217.186V217.326V217.467V217.608V217.749V217.891V218.033V218.175V218.317V218.46V218.602V218.746V218.889V219.032V219.176V219.32V219.465V219.609V219.754V219.899V220.044V220.19V220.336V220.481V220.628V220.774V220.921V221.067V221.214V221.361V221.509V221.656V221.804V221.952V222.1V222.249V222.397V222.546V222.695V222.844V222.993V223.143V223.292V223.442V223.592V223.742V223.892V224.043V224.193V224.344V224.495V224.645V224.797V224.948V225.099V225.251V225.402V225.554V225.706V225.858V226.01V226.162V226.314V226.467V226.619V226.772V226.925V227.077V227.23V227.383V227.536V227.69V227.843V227.996V228.149V228.303V228.456V228.61V228.764V228.917V229.071V229.225V229.379V229.533V229.687V229.841V229.995V230.149V230.303V230.457V230.611V230.766V230.92V231.074V231.228V231.383V231.537V231.691V231.846V232V232.154V232.309V232.463V232.617V232.772V232.926V233.08V233.234V233.389V233.543V233.697V233.851V234.005V234.159V234.313V234.467V234.621V234.775V234.929V235.083V235.236V235.39V235.544V235.697V235.851V236.004V236.157V236.311V236.464V236.617V236.77V236.923V237.075V237.228V237.381V237.533V237.686V237.838V237.99V238.142V238.294V238.446V238.598V238.749V238.901V239.052V239.203V239.355V239.505V239.656V239.807V239.957V240.108V240.258V240.408V240.558V240.708V240.857V241.007V241.156V241.305V241.454V241.603V241.751V241.9V242.048V242.196V242.344V242.491V242.639V242.786V242.933V243.079V243.226V243.372V243.519V243.664V243.81V243.956V244.101V244.246V244.391V244.535V244.68V244.824V244.968V245.111V245.254V245.398V245.54V245.683V245.825V245.967V246.109V246.251V246.392V246.533V246.674V246.814V246.954V247.094V247.233V247.373V247.512V247.65V247.789V247.927V248.064V248.202V248.339V248.476V248.612V248.748V248.884V249.02V249.155V249.29V249.424V249.559V249.692V249.826V249.959V250.092V250.224V250.356V250.488V250.619V250.75V250.881V251.011V251.141V251.271V251.4V251.529V251.657V251.785V251.913V252.04V252.167V252.293V252.419V252.545V252.67V252.795V252.919V253.043V253.167V253.29V253.412V253.535V253.656V253.778V253.899V254.019V254.139V254.259V254.378V254.497V254.615V254.733V254.851V254.967V255.084V255.2V255.315V255.43V255.545V255.659V255.773V255.886V255.998V256.111V256.222V256.333V256.444V256.554V256.664V256.773V256.882V256.99V257.097V257.204V257.311V257.417V257.522V257.627V257.732V257.836V257.939V258.042V258.144V258.246V258.347V258.448V258.548V258.647V258.746V258.844V258.942V259.04V259.136V259.232V259.328V259.423V259.517V259.611V259.704V259.797V259.889V259.98V260.071V260.161V260.25V260.339V260.428V260.515V260.602V260.689V260.775V260.86V260.945V261.029V261.112V261.195V261.277V261.358V261.439V261.519V261.598V261.677V261.755V261.833V261.909V261.985V262.061V262.136V262.21V262.283V262.356V262.428V262.499V262.57V262.64V262.709V262.778V262.846V262.913V262.979V263.045V263.11V263.174V263.238V263.301V263.363V263.425V263.485C320.65 264.53 321.473 265.35 322.444 265.35H401.37M401.37 265.35H401.298M401.37 265.35H401.298M401.298 265.35H401.225M401.298 265.35H401.225M401.225 265.35H401.151M401.225 265.35H401.151M401.151 265.35H401.076M401.151 265.35H401.076M401.076 265.35H401M401.076 265.35H401M401 265.35H400.923M401 265.35H400.923M400.923 265.35H400.846M400.923 265.35H400.846M400.846 265.35H400.767M400.846 265.35H400.767M400.767 265.35H400.687M400.767 265.35H400.687M400.687 265.35H400.607M400.687 265.35H400.607M400.607 265.35H400.525M400.607 265.35H400.525M400.525 265.35H400.443M400.525 265.35H400.443M400.443 265.35H400.359M400.443 265.35H400.359M400.359 265.35H400.275M400.359 265.35H400.275M400.275 265.35H400.19M400.275 265.35H400.19M400.19 265.35H400.104M400.19 265.35H400.104M400.104 265.35H400.017M400.104 265.35H400.017M400.017 265.35H399.929M400.017 265.35H399.929M399.929 265.35H399.84M399.929 265.35H399.84M399.84 265.35H399.75M399.84 265.35H399.75M399.75 265.35H399.66M399.75 265.35H399.66M399.66 265.35H399.568M399.66 265.35H399.568M399.568 265.35H399.476M399.568 265.35H399.476M399.476 265.35H399.383M399.476 265.35H399.383M399.383 265.35H399.289M399.383 265.35H399.289M399.289 265.35H399.194M399.289 265.35H399.194M399.194 265.35H399.098M399.194 265.35H399.098M399.098 265.35H399.001M399.098 265.35H399.001M399.001 265.35H398.903M399.001 265.35H398.903M398.903 265.35H398.805M398.903 265.35H398.805M398.805 265.35H398.706M398.805 265.35H398.706M398.706 265.35H398.605M398.706 265.35H398.605M398.605 265.35H398.504M398.605 265.35H398.504M398.504 265.35H398.403M398.504 265.35H398.403M398.403 265.35H398.3M398.403 265.35H398.3M398.3 265.35H398.196M398.3 265.35H398.196M398.196 265.35H398.092M398.196 265.35H398.092M398.092 265.35H397.987M398.092 265.35H397.987M397.987 265.35H397.881M397.987 265.35H397.881M397.881 265.35H397.774M397.881 265.35H397.774M397.774 265.35H397.666M397.774 265.35H397.666M397.666 265.35H397.558M397.666 265.35H397.558M397.558 265.35H397.448M397.558 265.35H397.448M397.448 265.35H397.338M397.448 265.35H397.338M397.338 265.35H397.227M397.338 265.35H397.227M397.227 265.35H397.116M397.227 265.35H397.116M397.116 265.35H397.003M397.116 265.35H397.003M397.003 265.35H396.89M397.003 265.35H396.89M396.89 265.35H396.776M396.89 265.35H396.776M396.776 265.35H396.661M396.776 265.35H396.661M396.661 265.35H396.546M396.661 265.35H396.546M396.546 265.35H396.429M396.546 265.35H396.429M396.429 265.35H396.312M396.429 265.35H396.312M396.312 265.35H396.194M396.312 265.35H396.194M396.194 265.35H396.075M396.194 265.35H396.075M396.075 265.35H395.956M396.075 265.35H395.956M395.956 265.35H395.836M395.956 265.35H395.836M395.836 265.35H395.715M395.836 265.35H395.715M395.715 265.35H395.593M395.715 265.35H395.593M395.593 265.35H395.471M395.593 265.35H395.471M395.471 265.35H395.347M395.471 265.35H395.347M395.347 265.35H395.223M395.347 265.35H395.223M395.223 265.35H395.099M395.223 265.35H395.099M395.099 265.35H394.973M395.099 265.35H394.973M394.973 265.35H394.847M394.973 265.35H394.847M394.847 265.35H394.72M394.847 265.35H394.72M394.72 265.35H394.593M394.72 265.35H394.593M394.593 265.35H394.464M394.593 265.35H394.464M394.464 265.35H394.335M394.464 265.35H394.335M394.335 265.35H394.206M394.335 265.35H394.206M394.206 265.35H394.075M394.206 265.35H394.075M394.075 265.35H393.944M394.075 265.35H393.944M393.944 265.35H393.812M393.944 265.35H393.812M393.812 265.35H393.68M393.812 265.35H393.68M393.68 265.35H393.547M393.68 265.35H393.547M393.547 265.35H393.413M393.547 265.35H393.413M393.413 265.35H393.278M393.413 265.35H393.278M393.278 265.35H393.143M393.278 265.35H393.143M393.143 265.35H393.007M393.143 265.35H393.007M393.007 265.35H392.871M393.007 265.35H392.871M392.871 265.35H392.733M392.871 265.35H392.733M392.733 265.35H392.596M392.733 265.35H392.596M392.596 265.35H392.457M392.596 265.35H392.457M392.457 265.35H392.318M392.457 265.35H392.318M392.318 265.35H392.178M392.318 265.35H392.178M392.178 265.35H392.037M392.178 265.35H392.037M392.037 265.35H391.896M392.037 265.35H391.896M391.896 265.35H391.754M391.896 265.35H391.754M391.754 265.35H391.612M391.754 265.35H391.612M391.612 265.35H391.469M391.612 265.35H391.469M391.469 265.35H391.325M391.469 265.35H391.325M391.325 265.35H391.181M391.325 265.35H391.181M391.181 265.35H391.036M391.181 265.35H391.036M391.036 265.35H390.891M391.036 265.35H390.891M390.891 265.35H390.744M390.891 265.35H390.744M390.744 265.35H390.598M390.744 265.35H390.598M390.598 265.35H390.45M390.598 265.35H390.45M390.45 265.35H390.302M390.45 265.35H390.302M390.302 265.35H390.154M390.302 265.35H390.154M390.154 265.35H390.005M390.154 265.35H390.005M390.005 265.35H389.855M390.005 265.35H389.855M389.855 265.35H389.704M389.855 265.35H389.704M389.704 265.35H389.554M389.704 265.35H389.554M389.554 265.35H389.402M389.554 265.35H389.402M389.402 265.35H389.25M389.402 265.35H389.25M389.25 265.35H389.097M389.25 265.35H389.097M389.097 265.35H388.944M389.097 265.35H388.944M388.944 265.35H388.79M388.944 265.35H388.79M388.79 265.35H388.636M388.79 265.35H388.636M388.636 265.35H388.481M388.636 265.35H388.481M388.481 265.35H388.326M388.481 265.35H388.326M388.326 265.35H388.17M388.326 265.35H388.17M388.17 265.35H388.013M388.17 265.35H388.013M388.013 265.35H387.856M388.013 265.35H387.856M387.856 265.35H387.698M387.856 265.35H387.698M387.698 265.35H387.54M387.698 265.35H387.54M387.54 265.35H387.382M387.54 265.35H387.382M387.382 265.35H387.222M387.382 265.35H387.222M387.222 265.35H387.063M387.222 265.35H387.063M387.063 265.35H386.902M387.063 265.35H386.902M386.902 265.35H386.742M386.902 265.35H386.742M386.742 265.35H386.58M386.742 265.35H386.58M386.58 265.35H386.419M386.58 265.35H386.419M386.419 265.35H386.256M386.419 265.35H386.256M386.256 265.35H386.094M386.256 265.35H386.094M386.094 265.35H385.93M386.094 265.35H385.93M385.93 265.35H385.766M385.93 265.35H385.766M385.766 265.35H385.602M385.766 265.35H385.602M385.602 265.35H385.437M385.602 265.35H385.437M385.437 265.35H385.272M385.437 265.35H385.272M385.272 265.35H385.107M385.272 265.35H385.107M385.107 265.35H384.94M385.107 265.35H384.94M384.94 265.35H384.774M384.94 265.35H384.774M384.774 265.35H384.607M384.774 265.35H384.607M384.607 265.35H384.439M384.607 265.35H384.439M384.439 265.35H384.271M384.439 265.35H384.271M384.271 265.35H384.103M384.271 265.35H384.103M384.103 265.35H383.934M384.103 265.35H383.934M383.934 265.35H383.764M383.934 265.35H383.764M383.764 265.35H383.594M383.764 265.35H383.594M383.594 265.35H383.424M383.594 265.35H383.424M383.424 265.35H383.254M383.424 265.35H383.254M383.254 265.35H383.082M383.254 265.35H383.082M383.082 265.35H382.911M383.082 265.35H382.911M382.911 265.35H382.739M382.911 265.35H382.739M382.739 265.35H382.567M382.739 265.35H382.567M382.567 265.35H382.394M382.567 265.35H382.394M382.394 265.35H382.22M382.394 265.35H382.22M382.22 265.35H382.047M382.22 265.35H382.047M382.047 265.35H381.873M382.047 265.35H381.873M381.873 265.35H381.698M381.873 265.35H381.698M381.698 265.35H381.524M381.698 265.35H381.524M381.524 265.35H381.348M381.524 265.35H381.348M381.348 265.35H381.173M381.348 265.35H381.173M381.173 265.35H380.997M381.173 265.35H380.997M380.997 265.35H380.82M380.997 265.35H380.82M380.82 265.35H380.644M380.82 265.35H380.644M380.644 265.35H380.466M380.644 265.35H380.466M380.466 265.35H380.289M380.466 265.35H380.289M380.289 265.35H380.111M380.289 265.35H380.111M380.111 265.35H379.933M380.111 265.35H379.933M379.933 265.35H379.754M379.933 265.35H379.754M379.754 265.35H379.575M379.754 265.35H379.575M379.575 265.35H379.396M379.575 265.35H379.396M379.396 265.35H379.216M379.396 265.35H379.216M379.216 265.35H379.036M379.216 265.35H379.036M379.036 265.35H378.856M379.036 265.35H378.856M378.856 265.35H378.675M378.856 265.35H378.675M378.675 265.35H378.494M378.675 265.35H378.494M378.494 265.35H378.313M378.494 265.35H378.313M378.313 265.35H378.131M378.313 265.35H378.131M378.131 265.35H377.949M378.131 265.35H377.949M377.949 265.35H377.767M377.949 265.35H377.767M377.767 265.35H377.585M377.767 265.35H377.585M377.585 265.35H377.402M377.585 265.35H377.402M377.402 265.35H377.218M377.402 265.35H377.218M377.218 265.35H377.035M377.218 265.35H377.035M377.035 265.35H376.851M377.035 265.35H376.851M376.851 265.35H376.667M376.851 265.35H376.667M376.667 265.35H376.483M376.667 265.35H376.483M376.483 265.35H376.298M376.483 265.35H376.298M376.298 265.35H376.113M376.298 265.35H376.113M376.113 265.35H375.928M376.113 265.35H375.928M375.928 265.35H375.742M375.928 265.35H375.742M375.742 265.35H375.556M375.742 265.35H375.556M375.556 265.35H375.37M375.556 265.35H375.37M375.37 265.35H375.184M375.37 265.35H375.184M375.184 265.35H374.997M375.184 265.35H374.997M374.997 265.35H374.81M374.997 265.35H374.81M374.81 265.35H374.623M374.81 265.35H374.623M374.623 265.35H374.436M374.623 265.35H374.436M374.436 265.35H374.248M374.436 265.35H374.248M374.248 265.35H374.06M374.248 265.35H374.06M374.06 265.35H373.872M374.06 265.35H373.872M373.872 265.35H373.684M373.872 265.35H373.684M373.684 265.35H373.495M373.684 265.35H373.495M373.495 265.35H373.307M373.495 265.35H373.307M373.307 265.35H373.118M373.307 265.35H373.118M373.118 265.35H372.928M373.118 265.35H372.928M372.928 265.35H372.739M372.928 265.35H372.739M372.739 265.35H372.549M372.739 265.35H372.549M372.549 265.35H372.359M372.549 265.35H372.359M372.359 265.35H372.169M372.359 265.35H372.169M372.169 265.35H371.979M372.169 265.35H371.979M371.979 265.35H371.789M371.979 265.35H371.789M371.789 265.35H371.598M371.789 265.35H371.598M371.598 265.35H371.407M371.598 265.35H371.407M371.407 265.35H371.216M371.407 265.35H371.216M371.216 265.35H371.025M371.216 265.35H371.025M371.025 265.35H370.834M371.025 265.35H370.834M370.834 265.35H370.642M370.834 265.35H370.642M370.642 265.35H370.45M370.642 265.35H370.45M370.45 265.35H370.258M370.45 265.35H370.258M370.258 265.35H370.066M370.258 265.35H370.066M370.066 265.35H369.874M370.066 265.35H369.874M369.874 265.35H369.682M369.874 265.35H369.682M369.682 265.35H369.489M369.682 265.35H369.489M369.489 265.35H369.296M369.489 265.35H369.296M369.296 265.35H369.104M369.296 265.35H369.104M369.104 265.35H368.911M369.104 265.35H368.911M368.911 265.35H368.718M368.911 265.35H368.718M368.718 265.35H368.524M368.718 265.35H368.524M368.524 265.35H368.331M368.524 265.35H368.331M368.331 265.35H368.138M368.331 265.35H368.138M368.138 265.35H367.944M368.138 265.35H367.944M367.944 265.35H367.75M367.944 265.35H367.75M367.75 265.35H367.556M367.75 265.35H367.556M367.556 265.35H367.362M367.556 265.35H367.362M367.362 265.35H367.168M367.362 265.35H367.168M367.168 265.35H366.974M367.168 265.35H366.974M366.974 265.35H366.78M366.974 265.35H366.78M366.78 265.35H366.586M366.78 265.35H366.586M366.586 265.35H366.391M366.586 265.35H366.391M366.391 265.35H366.197M366.391 265.35H366.197M366.197 265.35H366.002M366.197 265.35H366.002M366.002 265.35H365.807M366.002 265.35H365.807M365.807 265.35H365.613M365.807 265.35H365.613M365.613 265.35H365.418M365.613 265.35H365.418M365.418 265.35H365.223M365.418 265.35H365.223M365.223 265.35H365.028M365.223 265.35H365.028M365.028 265.35H364.833M365.028 265.35H364.833M364.833 265.35H364.638M364.833 265.35H364.638M364.638 265.35H364.443M364.638 265.35H364.443M364.443 265.35H364.248M364.443 265.35H364.248M364.248 265.35H364.052M364.248 265.35H364.052M364.052 265.35H363.857M364.052 265.35H363.857M363.857 265.35H363.662M363.857 265.35H363.662M363.662 265.35H363.467M363.662 265.35H363.467M363.467 265.35H363.271M363.467 265.35H363.271M363.271 265.35H363.076M363.271 265.35H363.076M363.076 265.35H362.88M363.076 265.35H362.88M362.88 265.35H362.685M362.88 265.35H362.685M362.685 265.35H362.489M362.685 265.35H362.489M362.489 265.35H362.294M362.489 265.35H362.294M362.294 265.35H362.099M362.294 265.35H362.099M362.099 265.35H361.903M362.099 265.35H361.903M361.903 265.35H361.708M361.903 265.35H361.708M361.708 265.35H361.512M361.708 265.35H361.512M361.512 265.35H361.317M361.512 265.35H361.317M361.317 265.35H361.121M361.317 265.35H361.121M361.121 265.35H360.926M361.121 265.35H360.926M360.926 265.35H360.73M360.926 265.35H360.73M360.73 265.35H360.535M360.73 265.35H360.535M360.535 265.35H360.34M360.535 265.35H360.34M360.34 265.35H360.144M360.34 265.35H360.144M360.144 265.35H359.949M360.144 265.35H359.949M359.949 265.35H359.754M359.949 265.35H359.754M359.754 265.35H359.558M359.754 265.35H359.558M359.558 265.35H359.363M359.558 265.35H359.363M359.363 265.35H359.168M359.363 265.35H359.168M359.168 265.35H358.973M359.168 265.35H358.973M358.973 265.35H358.778M358.973 265.35H358.778M358.778 265.35H358.583M358.778 265.35H358.583M358.583 265.35H358.388M358.583 265.35H358.388M358.388 265.35H358.193M358.388 265.35H358.193M358.193 265.35H357.999M358.193 265.35H357.999M357.999 265.35H357.804M357.999 265.35H357.804M357.804 265.35H357.609M357.804 265.35H357.609M357.609 265.35H357.415M357.609 265.35H357.415M357.415 265.35H357.22M357.415 265.35H357.22M357.22 265.35H357.026M357.22 265.35H357.026M357.026 265.35H356.832M357.026 265.35H356.832M356.832 265.35H356.638M356.832 265.35H356.638M356.638 265.35H356.444M356.638 265.35H356.444M356.444 265.35H356.25M356.444 265.35H356.25M356.25 265.35H356.056M356.25 265.35H356.056M356.056 265.35H355.862M356.056 265.35H355.862M355.862 265.35H355.669M355.862 265.35H355.669M355.669 265.35H355.475M355.669 265.35H355.475M355.475 265.35H355.282M355.475 265.35H355.282M355.282 265.35H355.089M355.282 265.35H355.089M355.089 265.35H354.896M355.089 265.35H354.896M354.896 265.35H354.703M354.896 265.35H354.703M354.703 265.35H354.51M354.703 265.35H354.51M354.51 265.35H354.317M354.51 265.35H354.317M354.317 265.35H354.125M354.317 265.35H354.125M354.125 265.35H353.932M354.125 265.35H353.932M353.932 265.35H353.74M353.932 265.35H353.74M353.74 265.35H353.548M353.74 265.35H353.548M353.548 265.35H353.356M353.548 265.35H353.356M353.356 265.35H353.164M353.356 265.35H353.164M353.164 265.35H352.973M353.164 265.35H352.973M352.973 265.35H352.781M352.973 265.35H352.781M352.781 265.35H352.59M352.781 265.35H352.59M352.59 265.35H352.399M352.59 265.35H352.399M352.399 265.35H352.208M352.399 265.35H352.208M352.208 265.35H352.018M352.208 265.35H352.018M352.018 265.35H351.827M352.018 265.35H351.827M351.827 265.35H351.637M351.827 265.35H351.637M351.637 265.35H351.447M351.637 265.35H351.447M351.447 265.35H351.257M351.447 265.35H351.257M351.257 265.35H351.068M351.257 265.35H351.068M351.068 265.35H350.878M351.068 265.35H350.878M350.878 265.35H350.689M350.878 265.35H350.689M350.689 265.35H350.5M350.689 265.35H350.5M350.5 265.35H350.311M350.5 265.35H350.311M350.311 265.35H350.123M350.311 265.35H350.123M350.123 265.35H349.934M350.123 265.35H349.934M349.934 265.35H349.746M349.934 265.35H349.746M349.746 265.35H349.558M349.746 265.35H349.558M349.558 265.35H349.371M349.558 265.35H349.371M349.371 265.35H349.183M349.371 265.35H349.183M349.183 265.35H348.996M349.183 265.35H348.996M348.996 265.35H348.809M348.996 265.35H348.809M348.809 265.35H348.623M348.809 265.35H348.623M348.623 265.35H348.437M348.623 265.35H348.437M348.437 265.35H348.251M348.437 265.35H348.251M348.251 265.35H348.065M348.251 265.35H348.065M348.065 265.35H347.879M348.065 265.35H347.879M347.879 265.35H347.694M347.879 265.35H347.694M347.694 265.35H347.509M347.694 265.35H347.509M347.509 265.35H347.324M347.509 265.35H347.324M347.324 265.35H347.14M347.324 265.35H347.14M347.14 265.35H346.956M347.14 265.35H346.956M346.956 265.35H346.772M346.956 265.35H346.772M346.772 265.35H346.588M346.772 265.35H346.588M346.588 265.35H346.405M346.588 265.35H346.405M346.405 265.35H346.222M346.405 265.35H346.222M346.222 265.35H346.04M346.222 265.35H346.04M346.04 265.35H345.858M346.04 265.35H345.858M345.858 265.35H345.676M345.858 265.35H345.676M345.676 265.35H345.494M345.676 265.35H345.494M345.494 265.35H345.313M345.494 265.35H345.313M345.313 265.35H345.132M345.313 265.35H345.132M345.132 265.35H344.951M345.132 265.35H344.951M344.951 265.35H344.771M344.951 265.35H344.771M344.771 265.35H344.591M344.771 265.35H344.591M344.591 265.35H344.411M344.591 265.35H344.411M344.411 265.35H344.232M344.411 265.35H344.232M344.232 265.35H344.053M344.232 265.35H344.053M344.053 265.35H343.874M344.053 265.35H343.874M343.874 265.35H343.696M343.874 265.35H343.696M343.696 265.35H343.518M343.696 265.35H343.518M343.518 265.35H343.341M343.518 265.35H343.341M343.341 265.35H343.164M343.341 265.35H343.164M343.164 265.35H342.987M343.164 265.35H342.987M342.987 265.35H342.811M342.987 265.35H342.811M342.811 265.35H342.635M342.811 265.35H342.635M342.635 265.35H342.459M342.635 265.35H342.459M342.459 265.35H342.284M342.459 265.35H342.284M342.284 265.35H342.109M342.284 265.35H342.109M342.109 265.35H341.935M342.109 265.35H341.935M341.935 265.35H341.761M341.935 265.35H341.761M341.761 265.35H341.587M341.761 265.35H341.587M341.587 265.35H341.414M341.587 265.35H341.414M341.414 265.35H341.241M341.414 265.35H341.241M341.241 265.35H341.069M341.241 265.35H341.069M341.069 265.35H340.897M341.069 265.35H340.897M340.897 265.35H340.725M340.897 265.35H340.725M340.725 265.35H340.554M340.725 265.35H340.554M340.554 265.35H340.383M340.554 265.35H340.383M340.383 265.35H340.213M340.383 265.35H340.213M340.213 265.35H340.043M340.213 265.35H340.043M340.043 265.35H339.874M340.043 265.35H339.874M339.874 265.35H339.705M339.874 265.35H339.705M339.705 265.35H339.537M339.705 265.35H339.537M339.537 265.35H339.369M339.537 265.35H339.369M339.369 265.35H339.201M339.369 265.35H339.201M339.201 265.35H339.034M339.201 265.35H339.034M339.034 265.35H338.868M339.034 265.35H338.868M338.868 265.35H338.701M338.868 265.35H338.701M338.701 265.35H338.536M338.701 265.35H338.536M338.536 265.35H338.371M338.536 265.35H338.371M338.371 265.35H338.206M338.371 265.35H338.206M338.206 265.35H338.042M338.206 265.35H338.042M338.042 265.35H337.878M338.042 265.35H337.878M337.878 265.35H337.715M337.878 265.35H337.715M337.715 265.35H337.552M337.715 265.35H337.552M337.552 265.35H337.39M337.552 265.35H337.39M337.39 265.35H337.228M337.39 265.35H337.228M337.228 265.35H337.067M337.228 265.35H337.067M337.067 265.35H336.906M337.067 265.35H336.906M336.906 265.35H336.746M336.906 265.35H336.746M336.746 265.35H336.586M336.746 265.35H336.586M336.586 265.35H336.427M336.586 265.35H336.427M336.427 265.35H336.268M336.427 265.35H336.268M336.268 265.35H336.11M336.268 265.35H336.11M336.11 265.35H335.953M336.11 265.35H335.953M335.953 265.35H335.795M335.953 265.35H335.795M335.795 265.35H335.639M335.795 265.35H335.639M335.639 265.35H335.483M335.639 265.35H335.483M335.483 265.35H335.328M335.483 265.35H335.328M335.328 265.35H335.173M335.328 265.35H335.173M335.173 265.35H335.018M335.173 265.35H335.018M335.018 265.35H334.865M335.018 265.35H334.865M334.865 265.35H334.712M334.865 265.35H334.712M334.712 265.35H334.559M334.712 265.35H334.559M334.559 265.35H334.407M334.559 265.35H334.407M334.407 265.35H334.255M334.407 265.35H334.255M334.255 265.35H334.105M334.255 265.35H334.105M334.105 265.35H333.954M334.105 265.35H333.954M333.954 265.35H333.804M333.954 265.35H333.804M333.804 265.35H333.655M333.804 265.35H333.655M333.655 265.35H333.507M333.655 265.35H333.507M333.507 265.35H333.359M333.507 265.35H333.359M333.359 265.35H333.212M333.359 265.35H333.212M333.212 265.35H333.065M333.212 265.35H333.065M333.065 265.35H332.919M333.065 265.35H332.919M332.919 265.35H332.773M332.919 265.35H332.773M332.773 265.35H332.628M332.773 265.35H332.628M332.628 265.35H332.484M332.628 265.35H332.484M332.484 265.35H332.34M332.484 265.35H332.34M332.34 265.35H332.197M332.34 265.35H332.197M332.197 265.35H332.055M332.197 265.35H332.055M332.055 265.35H331.913M332.055 265.35H331.913M331.913 265.35H331.772M331.913 265.35H331.772M331.772 265.35H331.632M331.772 265.35H331.632M331.632 265.35H331.492M331.632 265.35H331.492M331.492 265.35H331.353M331.492 265.35H331.353M331.353 265.35H331.214M331.353 265.35H331.214M331.214 265.35H331.076M331.214 265.35H331.076M331.076 265.35H330.939M331.076 265.35H330.939M330.939 265.35H330.803M330.939 265.35H330.803M330.803 265.35H330.667M330.803 265.35H330.667M330.667 265.35H330.532M330.667 265.35H330.532M330.532 265.35H330.397M330.532 265.35H330.397M330.397 265.35H330.263M330.397 265.35H330.263M330.263 265.35H330.13M330.263 265.35H330.13M330.13 265.35H329.998M330.13 265.35H329.998M329.998 265.35H329.866M329.998 265.35H329.866M329.866 265.35H329.735M329.866 265.35H329.735M329.735 265.35H329.604M329.735 265.35H329.604M329.604 265.35H329.475H329.604Z" fill="#FFC281" stroke="#3C3C3C" stroke-width="1.3" stroke-miterlimit="1.5"/>
<path d="M350 237.395L359.621 246L377 227" stroke="#3C3C3C" stroke-width="1.3" stroke-miterlimit="1.5" stroke-linecap="square"/>
</svg>
